<?xml version="1.0" encoding="UTF-8"?><svg id="Layer_2" xmlns="http://www.w3.org/2000/svg" viewBox="0 0 300 300"><defs><style>.cls-1{fill:#4a62ff;fill-rule:evenodd;}.cls-2{fill:#fff;}</style></defs><g id="Specter_-_Branding"><g id="App_Icon_-_White_on_Blue"><path id="Icon_Shape_-_Blue" class="cls-1" d="M102.1272727,0h95.7454546c34.5719147,0,44.2724469,0,59.1560653,5.0045387,17.5959833,6.430581,31.5359527,20.3708205,37.9667848,37.9668512,5.0044227,14.8834214,5.0044227,24.5842478,5.0044227,59.1559622v95.7454284c0,34.5717144,0,44.2724082-5.0044227,59.1559622-6.430832,17.5958981-20.3708014,31.5361376-37.9667848,37.9667186-14.8836184,5.0045387-24.5841506,5.0045387-59.1560653,5.0045387h-95.7454546c-34.5719147,0-44.2727104,0-59.1560653-5.0045387-17.5959833-6.430581-31.5362163-20.3708205-37.9667848-37.9667186-5.0044227-14.883554-5.0044227-24.5842478-5.0044227-59.1559622v-95.7454284c0-34.5717144,0-44.2725408,5.0044227-59.1559622C11.4349912,25.3753592,25.3752241,11.4351197,42.9712074,5.0045387,57.8545623,0,67.555358,0,102.1272727,0Z"/><path id="Symbol_-_White" class="cls-2" d="M166.8584328,244.1769562c-4.5129639,2.605188-10.1731201,3.9082031-15.8324341,3.9082031-5.6597351,0-11.3190491-1.3021729-15.8320129-3.9073608l-66.7061923-38.5136372,7.7648173-13.4431545,66.7034538,38.5113937c4.1477219,2.3946969,11.9920349,2.3946167,16.1402893-.0008423l56.7075949-32.7394467c3.680042-2.1246279,5.9470498-6.0511588,5.9470498-10.3004826v-7.3809447h-5.9385315c-51.1121776,0-38.8635786-73.4363159-64.7864685-73.4363159-25.9342774,0-13.6673621,73.4363159-64.7860474,73.4363159h-21.4639526v-65.8532227c0-10.75177,5.7839722-20.7690674,15.0941711-26.143689l56.0620789-32.367334c9.3097778-5.3754639,20.8777222-5.3754639,30.1875,0l56.0625,32.3681763c9.3092138,5.3747563,15.09375,15.3910767,15.09375,26.1428467v35.7861694h-15.525v-35.7861694c0-5.222168-2.809021-10.087207-7.3308289-12.6974487l-56.0629211-32.3690186c-4.522229-2.611084-10.140271-2.611084-14.6625,0l-56.0625,32.3681763c-4.522229,2.611084-7.33125,7.476123-7.33125,12.698291v50.3282227h5.9389526c37.9540041,0,22.4388873-73.4363159,64.7860474-73.4363159,42.5346526,0,26.6698275,73.4363159,64.7864685,73.4363159h21.4635315v22.9932386c0,9.7415144-5.1970418,18.7430432-13.6334462,23.613791l-56.7841197,32.7842423Z"/></g></g></svg>